<?xml version="1.0" encoding="utf-8"?>
<svg version="1.1" id="Layer_1" xmlns="http://www.w3.org/2000/svg" x="0px" y="0px" width="100%" viewBox="0 0 700 700" enable-background="new 0 0 700 700">
  <path fill="#76347E" opacity="1.000000" stroke="none" d=" M327.633301,24.280956 C345.912079,7.918866 363.448730,3.962127 384.461761,19.988142 C385.890717,21.077967 387.306793,22.184620 388.886597,23.582203 C391.508331,30.314425 390.548981,36.987415 390.173889,43.558693 C389.963196,47.249687 387.328491,46.726685 384.369873,45.286240 C382.092407,46.051003 382.123901,46.037136 383.205597,48.493065 C387.841125,59.017792 392.717407,69.433784 396.242554,80.425362 C399.506439,90.602470 402.995148,100.839638 403.736053,111.456856 C404.566498,123.357498 400.853729,134.491562 394.053497,144.428864 C384.441528,158.475021 371.020233,167.056320 354.936859,172.015060 C350.948273,173.244766 347.961609,172.830261 345.189728,169.706711 C341.344147,165.373215 337.439880,161.083740 333.395264,156.936783 C326.998260,150.377853 320.454224,143.962524 313.997833,137.461136 C312.951752,136.407791 311.846344,135.337418 311.097656,134.078995 C308.893860,130.374893 309.622040,129.079178 313.857605,129.015472 C318.021576,128.952835 322.196625,128.821487 326.349182,129.046158 C330.215210,129.255325 330.558655,127.228722 329.657562,124.398178 C328.059753,119.379425 326.611908,114.260139 323.885437,109.711807 C316.054321,96.647827 320.929657,77.185707 330.297272,68.077118 C337.706909,60.872337 343.504517,52.481430 345.502563,42.005455 C345.717865,40.876644 345.969604,39.727158 345.955872,38.590263 C345.942841,37.509579 346.536987,35.909481 345.273041,35.496403 C344.418396,35.217091 343.006470,35.854404 342.153961,36.494690 C338.604706,39.160366 335.173035,41.982620 331.399811,44.900074 C327.588837,45.853554 325.672821,44.534477 325.687653,40.852253 C325.709564,35.411526 324.384094,29.827894 327.633301,24.280956 z"/>
  <path fill="#86386E" opacity="1.000000" stroke="none" d=" M226.324417,399.492432 C224.195816,401.985229 220.246674,399.628571 219.429688,402.066864 C218.472397,404.923950 218.816147,408.323181 219.054001,411.452393 C219.552231,418.006836 220.350906,424.538452 221.064438,431.514099 C221.395050,441.020752 223.804169,449.893066 223.487335,459.041809 C223.298538,464.493408 223.548843,469.964813 223.444443,475.426239 C223.400116,477.745331 223.392242,480.151154 220.407562,481.624908 C216.893707,490.033386 215.870575,498.649719 215.049438,507.248260 C212.737213,531.460999 214.473816,555.748352 214.056793,579.999207 C213.969925,585.050781 211.654404,588.407593 207.174072,589.711548 C202.828735,590.976196 198.767120,589.986023 196.018921,585.637268 C195.014023,584.047119 195.014557,582.537903 195.013229,580.918152 C194.994751,558.275879 194.481934,535.617371 195.192566,512.997437 C195.630020,499.073090 197.300949,484.894836 202.290070,471.863800 C206.921417,459.767303 206.255951,448.436432 203.033585,436.497375 C200.444519,426.904694 199.552902,417.005798 200.053650,407.060699 C200.240967,403.340271 199.370377,401.365295 195.195160,401.974060 C190.370895,402.677490 185.670395,401.069641 180.446045,400.882599 C178.719254,399.131012 178.534607,397.159607 178.523621,395.139862 C178.381714,369.050079 176.884079,342.977783 177.508026,316.878784 C177.567398,314.395538 177.103561,311.731537 179.642456,309.461731 C185.678833,307.236115 186.264694,301.351501 188.770859,297.191376 C201.070847,276.773773 212.818893,256.024414 224.860962,235.450211 C228.405823,229.393707 233.597015,224.766220 239.108597,220.554260 C240.092560,219.802292 241.373291,218.470734 243.090759,219.659561 C245.046661,221.013428 245.207123,222.951462 244.973572,224.975677 C243.765976,235.442337 241.997116,245.736038 237.308456,255.369873 C229.444168,271.528748 219.647690,286.558746 210.441879,301.931580 C206.688919,308.198700 199.824005,314.099976 209.906708,320.647949 C218.454758,335.720184 219.250366,351.789703 205.597839,365.968262 C205.279358,366.299011 205.106186,366.769623 204.347992,368.045227 C211.308609,368.045227 217.687775,368.045227 224.531738,368.106171 C227.269791,369.734283 228.564896,371.714020 228.508636,374.659851 C228.388474,380.949066 228.517029,387.242157 228.453903,393.534515 C228.432556,395.662903 227.877213,397.479065 226.324417,399.492432 z"/>
  <path fill="#8B3969" opacity="1.000000" stroke="none" d=" M179.576721,309.099670 C179.508743,336.150940 180.849670,363.112366 180.996552,390.088501 C181.014694,393.421600 181.057037,396.759583 180.103897,400.418274 C167.318970,398.637238 156.778564,392.502502 150.297668,381.468079 C145.654068,373.561859 140.376755,366.489655 134.603592,359.383057 C123.668968,345.922821 124.285744,329.810364 133.817795,314.718414 C137.152893,309.438019 140.323456,304.051636 143.752075,298.833862 C144.583145,297.569092 144.961182,296.778534 144.153412,295.350952 C138.340729,285.078247 135.457474,273.790649 133.237885,262.341309 C132.623123,259.170197 131.750992,258.727112 128.693405,259.528412 C123.820816,260.805389 118.755188,261.345764 113.279755,262.281616 C114.005913,256.360229 118.137863,252.888947 120.338715,248.478668 C122.596367,243.954559 125.780014,239.879120 128.683823,235.694366 C132.127960,230.730927 133.982758,225.223785 135.040970,219.321228 C136.551453,210.896057 139.304291,202.819977 142.595352,194.935852 C143.356049,193.113510 143.967789,191.934174 141.492981,190.691940 C138.723389,189.301727 137.358032,185.933655 134.129761,184.386414 C131.423218,175.584839 133.063950,166.718918 131.805679,158.089676 C131.645309,156.989853 131.907242,155.759171 133.541718,154.959625 C141.971130,164.860443 150.580856,174.116501 160.989929,181.626999 C163.845001,183.687027 164.693878,186.735886 163.306870,190.460007 C159.361115,201.054443 155.367279,211.658005 153.550491,222.897949 C152.926666,226.757324 152.417618,230.635239 151.841965,234.602386 C153.238510,234.511261 153.590134,233.808731 153.987732,233.069946 C158.209061,225.226334 164.988876,222.155869 173.436905,224.233032 C180.492966,225.967941 186.365906,233.834763 187.086517,241.218384 C188.050522,251.095993 184.528366,259.675354 180.377884,268.144562 C174.498566,280.141541 168.457993,292.059448 162.500397,304.018127 C161.771683,305.480835 161.129501,306.986664 160.250778,308.900330 C166.850708,307.776093 173.029968,307.301941 179.576721,309.099670 z"/>
  <path fill="#8A396A" opacity="1.000000" stroke="none" d=" M137.883789,27.365944 C142.633804,21.177504 148.380127,16.352818 155.017838,13.249502 C166.591904,7.838294 176.947052,12.080730 186.530655,19.050243 C187.979111,20.103609 189.365753,21.241991 190.942825,22.644617 C192.520920,28.742167 192.737198,34.633930 192.267212,40.535583 C192.115570,42.439816 191.628098,44.597713 188.349091,44.186012 C183.076340,40.681419 178.268585,37.296085 173.429474,33.956150 C172.643921,33.413963 171.719482,33.072994 170.126450,32.269341 C170.142563,38.498215 170.983368,44.029926 173.149597,49.228119 C175.966446,55.987545 180.133255,61.852680 185.436417,67.026428 C196.671448,77.987289 199.396561,94.857117 192.498428,108.981155 C190.470398,113.133591 189.008286,117.434143 187.815216,121.911247 C186.805054,125.702049 188.373184,126.852592 191.547241,126.956169 C195.874237,127.097366 200.209900,127.053520 204.540039,126.981285 C206.469513,126.949104 208.189636,127.158241 209.329224,128.938065 C210.745651,131.150223 208.194321,131.634338 207.593552,132.969315 C206.534439,135.322723 204.578751,136.903152 202.826950,138.656174 C193.800095,147.689194 185.068970,156.995972 176.811218,166.740082 C174.841293,169.064575 172.606522,169.686325 169.774521,168.340530 C150.262375,159.068085 135.187164,145.858612 131.374786,123.374954 C129.914383,114.762283 130.349060,105.848221 131.248245,97.202316 C132.706955,83.176605 135.504456,69.323303 139.954361,55.489807 C137.910858,54.144238 136.869431,52.264675 136.848557,50.306973 C136.768387,42.786331 134.448593,35.138103 137.883789,27.365944 z"/>
  <path fill="#703284" opacity="1.000000" stroke="none" d=" M384.043762,45.338047 C387.193817,44.524094 387.892212,42.194069 387.972504,39.328548 C388.109344,34.447788 387.607574,29.525023 388.949036,24.295742 C412.269714,42.954094 427.570862,67.187721 433.513763,96.525230 C437.324280,115.336143 435.867859,134.300171 428.286194,152.430344 C425.029297,160.218613 421.393158,167.749893 416.086273,174.324677 C414.323090,176.509109 415.352448,178.143585 416.409790,179.682938 C419.294037,183.882141 422.565460,187.818726 425.381226,192.060028 C426.504028,193.751236 427.735321,194.029343 429.472748,194.015656 C435.635986,193.967087 441.800232,193.964310 447.963165,194.031052 C449.207458,194.044540 450.797821,193.417969 451.629120,194.757309 C452.526245,196.202637 450.961609,197.087952 450.436829,198.238602 C448.408020,202.686859 444.460236,205.647827 441.803497,209.618027 C440.205444,212.006088 439.955292,213.935654 441.742645,216.257050 C444.242126,219.503311 446.567047,222.883972 449.009644,226.552719 C451.565674,235.245941 450.219788,243.805237 450.375671,252.276138 C450.413422,254.328751 449.181305,255.667679 446.370178,255.218414 C431.486267,234.527313 417.067566,213.971603 402.137726,192.687195 C397.489777,197.563461 393.090302,202.300888 388.549866,206.899139 C385.592529,209.894135 383.811981,209.548904 382.423523,205.854553 C380.667694,201.182724 380.876068,196.179611 380.494293,191.330383 C380.282745,188.643356 382.213806,186.345093 384.203003,184.146530 C396.741577,170.288284 407.666016,155.450027 413.474579,137.266037 C418.999725,119.969284 417.193542,103.149307 411.134857,86.603149 C405.389709,70.913315 396.072205,57.389915 384.043762,45.338047 z"/>
  <path fill="#622E92" opacity="1.000000" stroke="none" d=" M517.531128,306.040283 C529.927307,311.850525 539.297241,320.918732 547.882202,330.775696 C561.250000,346.124237 567.317871,365.335052 574.767761,383.716888 C581.604126,400.584656 587.992798,417.647827 593.528259,435.008575 C596.469849,444.234070 598.768982,453.627777 600.867432,463.067139 C601.902405,467.722870 598.158936,473.071198 593.622375,473.941437 C587.202576,475.172913 582.086121,472.111938 581.145386,465.785187 C579.250549,453.041016 575.356323,440.879639 571.031006,428.832336 C562.826111,405.979004 554.182190,383.291046 544.487183,361.022705 C538.953430,348.312286 529.098511,338.993805 519.108093,329.410278 C515.148132,321.743591 515.813049,313.994385 517.531128,306.040283 z"/>
  <path fill="#75337F" opacity="1.000000" stroke="none" d=" M342.711792,333.588623 C346.271637,330.672363 349.398834,327.954773 352.844604,325.730774 C360.266541,320.940369 360.271820,314.086517 358.350830,306.771942 C355.119812,294.469208 359.159149,283.880219 365.621033,273.748901 C370.424042,266.218475 373.818085,257.943024 377.971405,250.068069 C378.509583,249.047653 378.824890,247.824768 379.589844,247.028427 C380.795654,245.773178 381.723633,243.724182 383.925995,244.155746 C386.065033,244.574844 386.545746,246.644135 386.893219,248.338745 C390.287903,264.892944 393.640442,281.456665 396.828369,298.051605 C397.398285,301.018616 396.264160,303.152771 392.525116,303.045624 C388.266815,302.923615 384.546600,300.993256 380.692535,299.706329 C377.333405,298.584686 376.762146,299.694458 377.026367,302.444489 C377.735382,309.823273 378.416718,317.208313 379.338562,324.562134 C380.727539,335.642426 382.312317,346.698151 383.811218,357.764679 C383.926788,358.617828 383.942169,359.555542 382.923309,359.784058 C381.277618,360.153076 379.795380,360.034393 378.278046,358.845673 C373.100006,354.789032 367.567505,351.161469 362.591125,346.880920 C360.177521,344.804688 358.687317,345.468170 356.633148,346.852142 C352.816254,349.423767 349.174255,352.300934 344.456177,354.013428 C342.386780,354.242798 340.941040,353.691223 340.891144,351.842133 C340.729584,345.850922 339.045868,339.703003 342.711792,333.588623 z"/>
  <path fill="#8F3A65" opacity="1.000000" stroke="none" d=" M137.591019,27.103415 C139.698685,31.454935 138.347137,36.195049 138.912430,40.804703 C139.458420,45.256886 139.571884,49.762112 139.905762,54.672729 C131.795914,65.054626 126.764610,76.623901 123.219635,88.788109 C117.431664,108.648911 119.432144,127.898811 129.102509,146.248825 C130.546844,148.989532 132.351517,151.540359 134.016235,154.532486 C134.889145,164.351898 135.879929,173.817062 134.070282,183.699921 C117.166420,167.006439 105.336823,147.235413 102.057007,123.160156 C98.063202,93.843895 107.487717,67.990456 123.552734,44.081635 C127.591225,38.071346 131.985519,32.267170 137.591019,27.103415 z"/>
  <path fill="#6B3089" opacity="1.000000" stroke="none" d=" M517.876709,305.578491 C519.462769,313.262360 518.908264,320.725861 518.963135,328.639465 C514.146118,327.001068 510.365173,323.274506 505.741974,320.780914 C501.552002,318.520905 497.577911,315.769897 492.962921,314.565002 C484.813843,312.437408 481.145966,305.751221 476.861725,299.601624 C466.658173,284.955597 456.440125,270.319733 446.066437,255.381409 C448.282684,252.506134 447.720001,249.267105 448.042267,246.173889 C448.687897,239.976852 446.285980,233.673782 448.899170,227.228897 C452.953430,229.116196 457.188110,227.727264 461.259583,227.943787 C465.905975,228.190887 470.576630,227.947128 475.234253,228.040939 C476.433167,228.065109 478.105469,227.331665 478.729767,228.993927 C479.319641,230.564621 478.151550,231.874115 477.328827,233.037323 C473.821777,237.995926 470.402710,243.041946 466.529053,247.705093 C464.686829,249.922684 465.684296,251.029022 466.863892,252.737839 C468.110046,254.543106 468.785889,256.051147 471.793915,255.302353 C479.098114,253.484146 486.574036,252.361237 493.966492,250.886719 C495.205109,250.639648 496.416992,249.554886 497.471649,251.136612 C498.564636,252.775772 497.360626,253.801224 496.546906,255.083694 C492.854462,260.903473 489.534912,266.977814 485.562592,272.593719 C483.842072,275.026093 484.022125,276.803162 485.443115,278.797577 C489.063965,283.879425 492.605377,289.041687 496.579315,293.839844 C499.261780,297.078583 503.783722,297.583069 507.308655,299.652771 C510.706451,301.647827 514.240540,303.410675 517.876709,305.578491 z"/>
  <path fill="#833771" opacity="1.000000" stroke="none" d=" M188.047852,44.350338 C190.517883,40.570717 190.123947,36.614075 189.579910,32.685871 C189.142410,29.526884 189.027100,26.464111 190.918716,23.275492 C193.663971,22.953386 194.512711,25.355028 196.174133,26.606983 C211.086685,37.844223 222.624039,52.069767 232.374893,67.836288 C236.266678,74.129044 239.781921,80.633675 242.305893,87.622971 C243.050476,89.684837 244.400024,90.226044 246.555481,89.815544 C250.395126,89.084290 254.286224,88.623062 258.578308,88.108154 C260.707092,89.477936 261.573425,91.206810 261.410248,93.356552 C261.060547,97.963120 262.652435,102.665154 260.364990,107.513321 C252.233917,107.970970 244.606232,109.019173 237.031708,110.797432 C234.023224,111.503723 230.517410,111.795753 229.274200,107.614960 C221.821655,82.552643 207.014023,62.296467 188.047852,44.350338 z"/>
  <path fill="#7D3577" opacity="1.000000" stroke="none" d=" M260.464813,107.898140 C258.363739,101.652977 259.219849,95.338776 259.000793,88.624649 C264.101013,88.204147 269.208557,87.326767 274.288635,88.855919 C276.847015,89.626015 278.900299,88.917763 280.085602,85.913307 C285.734894,71.593475 293.251312,58.281765 303.280823,46.587788 C310.440887,38.239422 317.955475,30.139973 327.609009,23.948101 C327.983429,28.528429 328.000885,33.171204 328.039429,37.813801 C328.060608,40.361286 328.428162,42.792858 330.824829,44.809643 C322.941040,53.498375 314.643433,61.829292 308.549927,72.004196 C303.124359,81.063705 298.358582,90.441574 295.011261,100.484283 C292.085663,109.261742 291.659088,110.057693 282.782928,108.832245 C275.466156,107.822083 268.203979,108.359779 260.464813,107.898140 z"/>
  <path fill="#6B3089" opacity="1.000000" stroke="none" d=" M499.002075,511.969666 C496.694611,522.737915 495.878815,533.408203 491.968384,544.295715 C487.766571,537.734619 486.942627,530.763306 484.058044,524.638184 C480.479736,517.039856 477.171570,509.317871 472.075226,502.551300 C468.128265,497.310852 467.342926,491.583771 469.028931,485.275635 C471.613068,475.607208 473.887848,465.855957 476.489624,456.192566 C476.862579,454.807312 476.629791,452.481018 478.853943,452.281921 C480.515503,452.133209 481.444489,453.749786 482.262085,454.897278 C487.792816,462.659882 493.138184,470.554749 498.683380,478.306763 C503.917786,485.624237 501.346893,493.580200 500.744781,501.349396 C500.479889,504.766998 499.606079,508.137451 499.002075,511.969666 z"/>
  <path fill="#7B3579" opacity="1.000000" stroke="none" d=" M334.999390,474.998596 C334.997009,480.325897 335.030518,485.154266 334.963837,489.981232 C334.949463,491.021515 335.453644,492.487213 333.788177,492.834015 C332.435089,493.115784 331.745087,492.189026 331.051361,491.158813 C328.390350,487.207001 325.469574,483.419342 322.980286,479.365021 C318.017517,471.282227 311.082153,465.201843 303.239594,460.244507 C299.937592,458.157257 299.194214,455.158508 299.419983,452.352753 C300.178192,442.930389 300.488495,433.594971 299.061493,424.198334 C298.184326,418.422302 299.902374,412.678589 300.050812,406.895447 C300.072540,406.049622 300.216858,405.245728 301.324402,405.122955 C302.480316,404.994812 303.300507,405.588409 303.813385,406.465973 C312.862518,421.947723 323.701324,436.261902 333.164642,451.473541 C334.531677,453.671021 335.094330,455.934845 335.035248,458.517975 C334.913483,463.842529 334.999115,469.171844 334.999390,474.998596 z"/>
  <path fill="#6F3285" opacity="1.000000" stroke="none" d=" M433.280151,413.571259 C427.675262,400.389679 425.226166,386.899261 423.865143,373.081573 C423.343781,367.788544 422.985565,362.534546 423.011322,357.238647 C423.041077,351.118896 426.079224,346.746887 430.700043,346.039154 C437.839691,344.945557 441.809723,347.314270 444.076904,353.950989 C449.782104,370.651611 452.215027,387.821991 452.110718,405.461945 C452.078247,410.952545 450.194824,414.786743 445.458832,417.142670 C440.633698,419.542969 436.938385,416.954987 433.280151,413.571259 z"/>
  <path fill="#7E3676" opacity="1.000000" stroke="none" d=" M318.616058,231.867203 C322.505371,234.172562 319.079224,235.767014 318.077789,236.200775 C310.452301,239.503662 306.337708,245.638840 302.427795,252.661438 C297.781097,261.007446 287.780396,263.877045 277.583984,260.675079 C270.814606,258.549286 264.423035,256.046753 256.955170,257.812103 C252.264816,258.920868 250.907181,256.473328 253.019852,252.040680 C256.438171,244.868637 260.238220,237.831345 266.176544,232.447174 C272.212006,226.974945 279.326385,224.720749 287.633087,226.755768 C292.110077,227.852585 296.638916,228.772919 300.888702,230.527985 C306.602417,232.887619 312.466766,231.562363 318.616058,231.867203 z"/>
  <path fill="#833771" opacity="1.000000" stroke="none" d=" M220.297424,482.019318 C221.439789,474.606079 220.969925,467.312012 220.726532,460.000916 C220.423950,450.911713 219.335571,441.807312 220.955811,432.334167 C225.978638,448.088684 231.306641,464.072327 237.856445,479.621185 C241.174530,487.498108 244.331650,495.465698 248.115906,503.118134 C253.964645,514.945374 252.604019,526.765198 248.920959,538.669617 C247.962112,541.768799 244.569641,542.074402 241.807922,539.231506 C234.695511,531.909912 230.303665,523.285645 230.001282,512.875916 C229.679138,501.786194 226.791763,491.484344 220.297424,482.019318 z"/>
  <path fill="#642F90" opacity="1.000000" stroke="none" d=" M552.001465,444.003723 C558.102173,455.060089 562.083374,466.502228 564.726318,478.442139 C565.723755,482.948303 563.642090,488.000153 559.921997,490.018677 C556.088013,492.099030 550.800842,491.436523 547.626343,488.045166 C542.138184,482.182037 538.609497,475.000122 535.481201,467.758545 C531.651306,458.892975 527.873108,449.969574 526.518738,440.208679 C525.732361,434.541687 527.395508,429.562653 531.799561,427.669983 C536.596069,425.608643 542.914429,427.844543 545.890869,432.825806 C548.005493,436.364807 549.903992,440.032959 552.001465,444.003723 z"/>
  <path fill="#68308C" opacity="1.000000" stroke="none" d=" M518.252808,360.742249 C521.613220,365.438721 524.828003,369.807434 527.807068,374.331421 C531.283752,379.611298 530.610535,384.399475 526.093811,388.410004 C522.331055,391.751099 516.670654,391.395294 512.213684,387.731293 C501.046783,378.550934 491.297211,368.033875 482.944824,356.275238 C480.614075,352.994019 478.029022,349.383911 478.105255,345.134308 C478.257843,336.626129 487.401703,332.175507 494.635681,337.231964 C503.736938,343.593750 511.108276,351.831512 518.252808,360.742249 z"/>
  <path fill="#833771" opacity="1.000000" stroke="none" d=" M226.360886,399.875610 C225.648590,389.549500 226.828415,379.222656 225.061752,368.572052 C225.325851,368.125427 225.674759,367.990753 225.981674,368.055420 C239.493744,370.902527 248.300735,363.091614 256.961914,354.627319 C261.244568,350.442017 265.982697,346.722778 271.042603,342.334900 C271.380707,348.543182 267.984833,352.991730 268.110229,358.188324 C271.161407,358.324890 272.864136,355.970093 275.548859,354.983826 C278.326447,354.378906 279.139282,355.754608 279.434479,357.832581 C280.115570,362.626740 280.665833,367.414368 279.188782,372.609375 C274.515076,375.468750 269.968292,378.048676 265.262939,380.296753 C252.250443,386.513763 239.966415,394.155853 226.360886,399.875610 z"/>
  <path fill="#6F3285" opacity="1.000000" stroke="none" d=" M439.026733,541.973572 C447.610901,552.018860 454.928375,562.486328 460.090179,574.362244 C460.481201,575.261902 460.796326,576.197632 461.099274,577.132019 C463.210480,583.643616 462.019043,588.177612 457.465607,591.018677 C453.770996,593.323914 447.716248,592.172302 443.608398,588.052124 C436.469574,580.891846 430.725403,572.637146 425.534607,564.005432 C422.411377,558.811768 419.039246,553.742554 417.774231,547.608765 C416.706757,542.432861 418.025879,537.959717 422.047211,535.577271 C426.461792,532.961792 430.623871,534.221680 434.393890,537.014587 C436.106506,538.283325 437.433960,540.071960 439.026733,541.973572 z"/>
  <path fill="#7B3579" opacity="1.000000" stroke="none" d=" M279.492249,373.009644 C276.668213,370.779663 277.640533,367.816010 277.417847,365.059906 C277.164581,361.925079 276.611115,358.814453 276.043304,355.320374 C282.053589,350.131714 288.886139,348.143799 296.842773,347.809998 C313.187134,347.124390 328.488556,342.288147 342.661163,333.230164 C343.353821,339.865784 342.194031,346.625977 343.952759,353.664856 C332.009399,361.504425 318.676941,365.122589 304.669189,365.882782 C295.734314,366.367645 287.442810,368.224548 279.492249,373.009644 z"/>
  <path fill="#000000" opacity="1.000000" stroke="none" d=" M381.174713,43.764694 C380.419678,43.690434 380.129272,43.426003 380.540863,42.902893 C380.842896,43.150398 381.144958,43.397896 381.174713,43.764694 z"/>
</svg>